<svg xmlns="http://www.w3.org/2000/svg" width="30.031" height="30.031" viewBox="0 0 30.031 30.031">
  <path id="circletwitter" d="M15.016,30.031A14.73,14.73,0,0,1,9.18,28.843a14.692,14.692,0,0,1-7.992-7.992,14.93,14.93,0,0,1,0-11.672A14.692,14.692,0,0,1,9.18,1.188a14.93,14.93,0,0,1,11.672,0A14.692,14.692,0,0,1,28.843,9.18a14.93,14.93,0,0,1,0,11.672,14.692,14.692,0,0,1-7.992,7.992,14.73,14.73,0,0,1-5.836,1.188ZM23.843,7.508a5.422,5.422,0,0,0-.528.323l-.572.381-.542.294-.616.205a3.456,3.456,0,0,0-2.669-1.2q-3.431,0-3.431,2.874v1.73a9.277,9.277,0,0,1-7.244-3.46,2.368,2.368,0,0,0-.733,1.672,3.342,3.342,0,0,0,1.437,2.933q-.176,0-.5.029a2.224,2.224,0,0,1-.513,0,1.47,1.47,0,0,1-.425-.147,3.468,3.468,0,0,0,.718,2.243,3.312,3.312,0,0,0,1.98,1.158,1.01,1.01,0,0,1-.821.352,1.329,1.329,0,0,1-.821-.264,1.957,1.957,0,0,0,1.1,1.774,5.115,5.115,0,0,0,2.478.66,3.18,3.18,0,0,1-1.54,1.188,5.847,5.847,0,0,1-2.156.4,4.411,4.411,0,0,1-1.13-.205q-.719-.205-.747-.205A3.832,3.832,0,0,0,8.49,21.849a8.737,8.737,0,0,0,3.68.674,9.676,9.676,0,0,0,3.666-.689A9.119,9.119,0,0,0,18.74,20a12.042,12.042,0,0,0,2.068-2.61A12.2,12.2,0,0,0,22.1,14.356a11.856,11.856,0,0,0,.425-3.094q0-.058.352-.249A9.463,9.463,0,0,0,23.7,10.5a2.594,2.594,0,0,0,.7-.675q-1.583,0-2.111.058a3.94,3.94,0,0,0,1.554-2.376Z" fill="#a42910"/>
</svg>
