<svg xmlns="http://www.w3.org/2000/svg" width="30.031" height="30.031" viewBox="0 0 30.031 30.031">
  <path id="snapchat" d="M25.007,19.942a.5.5,0,0,0-.43-.528,5.23,5.23,0,0,1-2.307-1.154A6.029,6.029,0,0,1,20.7,16.149a1.886,1.886,0,0,1-.137-.489q0-.294.381-.508a3.453,3.453,0,0,1,.841-.332,2.4,2.4,0,0,0,.841-.4.857.857,0,0,0,.381-.714.723.723,0,0,0-.362-.616,1.332,1.332,0,0,0-.752-.245,1.8,1.8,0,0,0-.626.157,1.784,1.784,0,0,1-.606.157,1.062,1.062,0,0,1-.234-.039q.1-1.858.1-2.229A5.462,5.462,0,0,0,20.2,8.661a5.512,5.512,0,0,0-2.014-2.376,5.33,5.33,0,0,0-2.972-.85A5.406,5.406,0,0,0,9.834,8.661,5.462,5.462,0,0,0,9.5,10.89q0,.371.1,2.229a.67.67,0,0,1-.274.039,1.9,1.9,0,0,1-.626-.147,1.873,1.873,0,0,0-.586-.147,1.3,1.3,0,0,0-.752.234.726.726,0,0,0-.343.626.841.841,0,0,0,.381.694,2.376,2.376,0,0,0,.841.4,3.409,3.409,0,0,1,.841.332q.381.215.381.508a1.886,1.886,0,0,1-.137.489,5.416,5.416,0,0,1-3.872,3.265.5.5,0,0,0-.43.528q0,.9,2.679,1.33a3.826,3.826,0,0,1,.118.508,1.407,1.407,0,0,0,.225.6.55.55,0,0,0,.46.186,4.743,4.743,0,0,0,.733-.088,4.8,4.8,0,0,1,.772-.088,3.047,3.047,0,0,1,1.31.294,5.346,5.346,0,0,1,1.056.636,4.846,4.846,0,0,0,1.124.636,3.8,3.8,0,0,0,1.5.294,3.975,3.975,0,0,0,1.545-.294,4.581,4.581,0,0,0,1.124-.636,5.079,5.079,0,0,1,1.044-.636,3.04,3.04,0,0,1,1.31-.294,5.34,5.34,0,0,1,.772.078,5.3,5.3,0,0,0,.752.078.51.51,0,0,0,.45-.2,1.583,1.583,0,0,0,.215-.586,3.784,3.784,0,0,1,.118-.489q2.679-.43,2.679-1.33Zm5.024-4.927a14.69,14.69,0,0,1-2.014,7.537,14.946,14.946,0,0,1-5.465,5.465,14.69,14.69,0,0,1-7.537,2.014,14.69,14.69,0,0,1-7.537-2.014,14.946,14.946,0,0,1-5.465-5.465A14.69,14.69,0,0,1,0,15.016,14.69,14.69,0,0,1,2.014,7.479,14.946,14.946,0,0,1,7.479,2.014,14.689,14.689,0,0,1,15.016,0a14.69,14.69,0,0,1,7.537,2.014,14.946,14.946,0,0,1,5.465,5.465A14.69,14.69,0,0,1,30.031,15.016Z" fill="#a42910"/>
</svg>
