<svg xmlns="http://www.w3.org/2000/svg" width="30.275" height="30.275" viewBox="0 0 30.275 30.275">
  <path id="Subtraction_3" data-name="Subtraction 3" d="M15.14,30.275A15.137,15.137,0,0,1,4.435,4.433,15.137,15.137,0,0,1,25.842,25.84,15.035,15.035,0,0,1,15.14,30.275ZM15.14,6c-1.686,0-2.985.022-3.756.061a5.573,5.573,0,0,0-3.806,1.47,5.566,5.566,0,0,0-1.472,3.811c-.035.731-.053,2.028-.053,3.754s.018,3.022.053,3.754a5.566,5.566,0,0,0,1.472,3.811,5.575,5.575,0,0,0,3.806,1.47c.769.037,2.1.059,3.756.059s2.994-.022,3.754-.059a5.564,5.564,0,0,0,3.808-1.47,5.6,5.6,0,0,0,1.47-3.811c.039-.78.061-2.151.061-3.754s-.022-2.974-.061-3.754A5.6,5.6,0,0,0,22.7,7.527a5.562,5.562,0,0,0-3.808-1.47C18.131,6.018,16.835,6,15.14,6ZM17.3,22.557H16.046l-.243,0-.447-.007-.147,0h-.145l-.147,0-.458.007-.223,0H12.987c-.267,0-.611-.018-1.145-.035a10,10,0,0,1-1.218-.123,4.3,4.3,0,0,1-.85-.219,3.215,3.215,0,0,1-1.04-.683,3.125,3.125,0,0,1-.681-1.042,4.231,4.231,0,0,1-.221-.848,8.453,8.453,0,0,1-.12-1.22c-.022-.515-.031-.878-.031-1.145s-.007-.7,0-1.242V14.183c-.007-.552-.007-.961,0-1.248,0-.263.009-.626.031-1.141a8.517,8.517,0,0,1,.12-1.218,4.152,4.152,0,0,1,.221-.848,2.975,2.975,0,0,1,.681-1.042A3.141,3.141,0,0,1,9.774,8a4.691,4.691,0,0,1,.85-.226,9.968,9.968,0,0,1,1.218-.116c.416-.015.815-.028,1.145-.037h1.251c.552.007.83.007.9.007.114,0,.412,0,.907-.007H17.3c.309.009.679.02,1.139.037a8.863,8.863,0,0,1,1.218.123A4.034,4.034,0,0,1,20.5,8a2.972,2.972,0,0,1,1.04.683,3.218,3.218,0,0,1,.69,1.042,4.78,4.78,0,0,1,.217.848,8.4,8.4,0,0,1,.116,1.218c.015.414.028.821.039,1.141,0,.287,0,.7,0,1.248-.007.486-.009.8-.009.909,0,.127,0,.405.009.9,0,.55,0,.97,0,1.248s-.02.633-.039,1.145a8.228,8.228,0,0,1-.118,1.22,4.648,4.648,0,0,1-.215.848,3.15,3.15,0,0,1-.69,1.042,3.08,3.08,0,0,1-1.04.683,4.172,4.172,0,0,1-.85.219,10,10,0,0,1-1.218.123C18.059,22.535,17.674,22.549,17.3,22.557ZM15.14,10.429a4.64,4.64,0,0,0-4.663,4.663,4.643,4.643,0,0,0,4.663,4.663,4.643,4.643,0,0,0,4.66-4.663,4.64,4.64,0,0,0-4.66-4.663ZM19.995,9.15a1.077,1.077,0,0,0-1.088,1.088,1.087,1.087,0,1,0,1.857-.773A1.067,1.067,0,0,0,19.995,9.15ZM15.14,18.12A3.029,3.029,0,0,1,13,12.945a3.04,3.04,0,0,1,4.284,0A3.03,3.03,0,0,1,15.14,18.12Z" fill="#a42910"/>
</svg>
